<?xml version="1.0" encoding="UTF-8" standalone="no"?>
<!-- Created with Inkscape (http://www.inkscape.org/) -->

<svg
   width="213mm"
   height="73mm"
   viewBox="0 0 213 73"
   version="1.1"
   id="svg255"
   inkscape:version="1.2.2 (b0a8486541, 2022-12-01)"
   sodipodi:docname="tapes.svg"
   xmlns:inkscape="http://www.inkscape.org/namespaces/inkscape"
   xmlns:sodipodi="http://sodipodi.sourceforge.net/DTD/sodipodi-0.dtd"
   xmlns="http://www.w3.org/2000/svg"
   xmlns:svg="http://www.w3.org/2000/svg">
  <sodipodi:namedview
     id="namedview257"
     pagecolor="#ffffff"
     bordercolor="#000000"
     borderopacity="0.25"
     inkscape:showpageshadow="2"
     inkscape:pageopacity="0.0"
     inkscape:pagecheckerboard="0"
     inkscape:deskcolor="#d1d1d1"
     inkscape:document-units="mm"
     showgrid="false"
     inkscape:zoom="0.71535494"
     inkscape:cx="73.390141"
     inkscape:cy="466.20214"
     inkscape:window-width="2560"
     inkscape:window-height="1377"
     inkscape:window-x="0"
     inkscape:window-y="652"
     inkscape:window-maximized="1"
     inkscape:current-layer="layer1" />
  <defs
     id="defs252" />
  <g
     inkscape:label="Layer 1"
     inkscape:groupmode="layer"
     id="layer1">
    <g
       style="font-style:normal;font-weight:400;font-size:72px;line-height:1;font-family:'Brandmark Sans 5 Spectrum';font-variant-ligatures:normal;text-align:center;text-anchor:middle"
       id="g38"
       transform="matrix(0.26458333,0,0,0.26458333,-29.417673,-56.478328)">
      <g
         aria-label="~T"
         stroke-width="0"
         stroke-miterlimit="2"
         id="g10">
        <path
           class="c1"
           fill="#da9bfd"
           d="M 284.516,308.806 H 327.9 v 99.164 h -43.384 z"
           id="path4" />
        <path
           class="c3"
           fill="#75ecfa"
           d="M 234.208,308.806 H 355.79 v 24.792 H 234.208 Z"
           id="path6" />
        <path
           class="c2"
           fill="#a7c3fb"
           d="M 284.516,308.806 H 327.9 v 24.792 h -43.384 z"
           id="path8" />
      </g>
      <path
         class="c1"
         fill="#da9bfd"
         aria-label="A"
         d="M 464.156,407.97 414.574,308.806 364.992,407.97 Z"
         id="path12" />
      <g
         aria-label="P"
         stroke-width="0"
         stroke-miterlimit="2"
         id="g20">
        <path
           class="c3"
           fill="#75ecfa"
           d="m 472.848,308.95 h 43.384 v 99.164 h -43.384 z"
           id="path14" />
        <path
           class="c1"
           d="m 534.824,308.95 h -61.978 v 74.374 h 61.98 c 20.536,0 37.186,-16.65 37.186,-37.188 0,-20.538 -16.65,-37.186 -37.188,-37.186 z"
           fill="#da9bfd"
           id="path16" />
        <path
           class="c2"
           fill="#a7c3fb"
           d="m 472.848,308.95 h 43.384 v 74.374 h -43.384 z"
           id="path18" />
      </g>
      <g
         aria-label="E"
         stroke-width="0"
         stroke-miterlimit="2"
         id="g28">
        <path
           class="c1"
           fill="#da9bfd"
           d="m 580.992,341.86 h 99.164 v 66.11 h -99.164 z"
           id="path22" />
        <path
           class="c3"
           fill="#75ecfa"
           d="m 580.992,308.806 h 99.164 v 66.11 h -99.164 z"
           id="path24" />
        <path
           class="c2"
           fill="#a7c3fb"
           d="m 580.992,341.86 h 99.164 v 33.054 h -99.164 z"
           id="path26" />
      </g>
      <g
         aria-label="S"
         stroke-width="0"
         stroke-miterlimit="2"
         id="g36">
        <path
           class="c3"
           d="m 716.88,308.806 c -15.402,0 -27.89,12.486 -27.89,27.89 0,15.404 12.49,27.89 27.89,27.89 h 71.276 v -55.78 z"
           fill="#75ecfa"
           id="path30" />
        <path
           class="c1"
           d="M 760.266,352.19 H 688.99 v 55.78 h 71.276 c 15.402,0 27.89,-12.486 27.89,-27.89 0,-15.404 -12.488,-27.89 -27.89,-27.89 z"
           fill="#da9bfd"
           id="path32" />
        <path
           class="c2"
           d="m 760.266,352.19 h -66.572 c 5.004,7.474 13.52,12.396 23.186,12.396 h 66.572 c -5.004,-7.472 -13.52,-12.396 -23.186,-12.396 z"
           fill="#a7c3fb"
           id="path34" />
      </g>
    </g>
  </g>
</svg>
